<svg xmlns="http://www.w3.org/2000/svg" width="15.628" height="45.846" viewBox="0 0 15.628 45.846"><defs><style>.a{fill:#54c5ff;}</style></defs><g transform="translate(0.331 -1.217)"><path class="a" d="M10.245,57.729l1.349-5.437,2.987-12.039a4,4,0,0,0-2.92-4.847l-.389-.1a4.026,4.026,0,0,0-.78-.113l0-.08-.175.079A7.323,7.323,0,0,0,7.3,36.384C3.807,38.816-.968,42.042-.261,43.579c1.072,2.327,6.3-3.8,5.049,1.253L3.439,50.268.452,62.307a3.852,3.852,0,0,0,2.746,4.8l.389.1a3.994,3.994,0,0,0,.78.113l0,.08.175-.079a7.318,7.318,0,0,0,3.025-1.188c3.489-2.432,8.351-5.636,7.643-7.173C14.135,56.632,8.993,62.777,10.245,57.729Z" transform="translate(0 -20.336)"/><circle class="a" cx="5.602" cy="5.602" r="5.602" transform="translate(4.094 1.217)"/></g></svg>