<svg xmlns="http://www.w3.org/2000/svg" width="64.696" height="64.75" viewBox="0 0 64.696 64.75"><defs><style>.a{fill:#54c5ff;}</style></defs><g transform="translate(-0.215)"><g transform="translate(32.563 0.027)"><path class="a" d="M278.877,55.436A32.348,32.348,0,0,0,256,.214V6.475A26.087,26.087,0,0,1,274.45,51.009l-.957.957-8.543-8.543,0,21.509,21.511.005-8.544-8.544Z" transform="translate(-256.004 -0.214)"/></g><g transform="translate(0.215)"><path class="a" d="M6.476,32.375a25.917,25.917,0,0,1,7.641-18.447l.957-.957,8.543,8.543,0-21.509L2.1,0l8.544,8.544L9.69,9.5A32.348,32.348,0,0,0,32.563,64.723V58.462A26.116,26.116,0,0,1,6.476,32.375Z" transform="translate(-0.215)"/></g></g></svg>